<mxfile host="app.diagrams.net" agent="Mozilla/5.0 (Windows NT 10.0; Win64; x64) AppleWebKit/537.36 (KHTML, like Gecko) Chrome/135.0.0.0 Safari/537.36 Edg/135.0.0.0" version="26.2.12">
  <diagram name="Page-1" id="vTmbtPRB-7lngf16kc15">
    <mxGraphModel dx="2060" dy="1112" grid="1" gridSize="10" guides="1" tooltips="1" connect="1" arrows="1" fold="1" page="1" pageScale="1" pageWidth="850" pageHeight="1100" math="0" shadow="0">
      <root>
        <mxCell id="0" />
        <mxCell id="1" parent="0" />
        <mxCell id="_a2HexDW0yAA7-zQYXx_-9" style="edgeStyle=orthogonalEdgeStyle;rounded=0;orthogonalLoop=1;jettySize=auto;html=1;exitX=1;exitY=0.5;exitDx=0;exitDy=0;entryX=0;entryY=0.5;entryDx=0;entryDy=0;strokeColor=light-dark(#000000,#66FF66);" edge="1" parent="1" source="_a2HexDW0yAA7-zQYXx_-1" target="_a2HexDW0yAA7-zQYXx_-2">
          <mxGeometry relative="1" as="geometry" />
        </mxCell>
        <mxCell id="_a2HexDW0yAA7-zQYXx_-1" value="START" style="rounded=0;whiteSpace=wrap;html=1;" vertex="1" parent="1">
          <mxGeometry x="40" y="380" width="120" height="60" as="geometry" />
        </mxCell>
        <mxCell id="_a2HexDW0yAA7-zQYXx_-10" style="edgeStyle=orthogonalEdgeStyle;rounded=0;orthogonalLoop=1;jettySize=auto;html=1;exitX=1;exitY=0.5;exitDx=0;exitDy=0;entryX=0;entryY=0.5;entryDx=0;entryDy=0;strokeColor=light-dark(#000000,#33FF33);" edge="1" parent="1" source="_a2HexDW0yAA7-zQYXx_-2" target="_a2HexDW0yAA7-zQYXx_-3">
          <mxGeometry relative="1" as="geometry" />
        </mxCell>
        <mxCell id="_a2HexDW0yAA7-zQYXx_-13" style="edgeStyle=orthogonalEdgeStyle;rounded=0;orthogonalLoop=1;jettySize=auto;html=1;exitX=0.5;exitY=1;exitDx=0;exitDy=0;entryX=0.5;entryY=0;entryDx=0;entryDy=0;strokeColor=light-dark(#000000,#FF0000);" edge="1" parent="1" source="_a2HexDW0yAA7-zQYXx_-2" target="_a2HexDW0yAA7-zQYXx_-6">
          <mxGeometry relative="1" as="geometry" />
        </mxCell>
        <mxCell id="_a2HexDW0yAA7-zQYXx_-2" value="JOB 1&lt;div&gt;On time probability&lt;/div&gt;" style="rounded=1;whiteSpace=wrap;html=1;" vertex="1" parent="1">
          <mxGeometry x="240" y="380" width="120" height="60" as="geometry" />
        </mxCell>
        <mxCell id="_a2HexDW0yAA7-zQYXx_-11" style="edgeStyle=orthogonalEdgeStyle;rounded=0;orthogonalLoop=1;jettySize=auto;html=1;exitX=1;exitY=0.5;exitDx=0;exitDy=0;entryX=0;entryY=0.5;entryDx=0;entryDy=0;strokeColor=light-dark(#000000,#33FF33);" edge="1" parent="1" source="_a2HexDW0yAA7-zQYXx_-3" target="_a2HexDW0yAA7-zQYXx_-4">
          <mxGeometry relative="1" as="geometry" />
        </mxCell>
        <mxCell id="_a2HexDW0yAA7-zQYXx_-14" style="edgeStyle=orthogonalEdgeStyle;rounded=0;orthogonalLoop=1;jettySize=auto;html=1;exitX=0.5;exitY=1;exitDx=0;exitDy=0;entryX=0.5;entryY=0;entryDx=0;entryDy=0;strokeColor=light-dark(#000000,#FF0000);" edge="1" parent="1" source="_a2HexDW0yAA7-zQYXx_-3" target="_a2HexDW0yAA7-zQYXx_-7">
          <mxGeometry relative="1" as="geometry" />
        </mxCell>
        <mxCell id="_a2HexDW0yAA7-zQYXx_-3" value="JOB 2&lt;div&gt;Avg Taxi Time&lt;/div&gt;" style="rounded=0;whiteSpace=wrap;html=1;" vertex="1" parent="1">
          <mxGeometry x="440" y="380" width="120" height="60" as="geometry" />
        </mxCell>
        <mxCell id="_a2HexDW0yAA7-zQYXx_-12" style="edgeStyle=orthogonalEdgeStyle;rounded=0;orthogonalLoop=1;jettySize=auto;html=1;exitX=1;exitY=0.5;exitDx=0;exitDy=0;entryX=0;entryY=0.5;entryDx=0;entryDy=0;strokeColor=light-dark(#000000,#33FF33);" edge="1" parent="1" source="_a2HexDW0yAA7-zQYXx_-4" target="_a2HexDW0yAA7-zQYXx_-5">
          <mxGeometry relative="1" as="geometry" />
        </mxCell>
        <mxCell id="_a2HexDW0yAA7-zQYXx_-15" style="edgeStyle=orthogonalEdgeStyle;rounded=0;orthogonalLoop=1;jettySize=auto;html=1;exitX=0.5;exitY=1;exitDx=0;exitDy=0;entryX=0.5;entryY=0;entryDx=0;entryDy=0;strokeColor=light-dark(#000000,#FF0000);" edge="1" parent="1" source="_a2HexDW0yAA7-zQYXx_-4" target="_a2HexDW0yAA7-zQYXx_-8">
          <mxGeometry relative="1" as="geometry" />
        </mxCell>
        <mxCell id="_a2HexDW0yAA7-zQYXx_-4" value="JOB 3&lt;div&gt;Flight Cancellations&lt;/div&gt;" style="rounded=0;whiteSpace=wrap;html=1;" vertex="1" parent="1">
          <mxGeometry x="640" y="380" width="120" height="60" as="geometry" />
        </mxCell>
        <mxCell id="_a2HexDW0yAA7-zQYXx_-5" value="END" style="rounded=0;whiteSpace=wrap;html=1;" vertex="1" parent="1">
          <mxGeometry x="840" y="380" width="120" height="60" as="geometry" />
        </mxCell>
        <mxCell id="_a2HexDW0yAA7-zQYXx_-16" style="edgeStyle=orthogonalEdgeStyle;rounded=0;orthogonalLoop=1;jettySize=auto;html=1;exitX=0.5;exitY=1;exitDx=0;exitDy=0;entryX=0.5;entryY=1;entryDx=0;entryDy=0;strokeColor=light-dark(#000000,#FF0000);" edge="1" parent="1" source="_a2HexDW0yAA7-zQYXx_-6" target="_a2HexDW0yAA7-zQYXx_-5">
          <mxGeometry relative="1" as="geometry" />
        </mxCell>
        <mxCell id="_a2HexDW0yAA7-zQYXx_-6" value="FAIL" style="rounded=0;whiteSpace=wrap;html=1;strokeColor=light-dark(#000000,#FF0000);" vertex="1" parent="1">
          <mxGeometry x="240" y="520" width="120" height="60" as="geometry" />
        </mxCell>
        <mxCell id="_a2HexDW0yAA7-zQYXx_-17" style="edgeStyle=orthogonalEdgeStyle;rounded=0;orthogonalLoop=1;jettySize=auto;html=1;exitX=0.5;exitY=1;exitDx=0;exitDy=0;strokeColor=light-dark(#000000,#FF0000);" edge="1" parent="1" source="_a2HexDW0yAA7-zQYXx_-7">
          <mxGeometry relative="1" as="geometry">
            <mxPoint x="500" y="600" as="targetPoint" />
          </mxGeometry>
        </mxCell>
        <mxCell id="_a2HexDW0yAA7-zQYXx_-7" value="FAIL" style="rounded=0;whiteSpace=wrap;html=1;strokeColor=light-dark(#000000,#FF0000);" vertex="1" parent="1">
          <mxGeometry x="440" y="520" width="120" height="60" as="geometry" />
        </mxCell>
        <mxCell id="_a2HexDW0yAA7-zQYXx_-18" style="edgeStyle=orthogonalEdgeStyle;rounded=0;orthogonalLoop=1;jettySize=auto;html=1;exitX=0.5;exitY=1;exitDx=0;exitDy=0;strokeColor=light-dark(#000000,#FF0000);" edge="1" parent="1" source="_a2HexDW0yAA7-zQYXx_-8">
          <mxGeometry relative="1" as="geometry">
            <mxPoint x="700" y="600" as="targetPoint" />
          </mxGeometry>
        </mxCell>
        <mxCell id="_a2HexDW0yAA7-zQYXx_-8" value="FAIL" style="rounded=0;whiteSpace=wrap;html=1;strokeColor=light-dark(#000000,#FF0000);" vertex="1" parent="1">
          <mxGeometry x="640" y="520" width="120" height="60" as="geometry" />
        </mxCell>
        <mxCell id="_a2HexDW0yAA7-zQYXx_-19" value="Success" style="text;html=1;align=center;verticalAlign=middle;resizable=0;points=[];autosize=1;strokeColor=none;fillColor=none;fontColor=light-dark(#000000,#000000);" vertex="1" parent="1">
          <mxGeometry x="365" y="380" width="70" height="30" as="geometry" />
        </mxCell>
        <mxCell id="_a2HexDW0yAA7-zQYXx_-20" value="Success" style="text;html=1;align=center;verticalAlign=middle;resizable=0;points=[];autosize=1;strokeColor=none;fillColor=none;fontColor=light-dark(#000000,#000000);" vertex="1" parent="1">
          <mxGeometry x="565" y="380" width="70" height="30" as="geometry" />
        </mxCell>
        <mxCell id="_a2HexDW0yAA7-zQYXx_-21" value="Success" style="text;html=1;align=center;verticalAlign=middle;resizable=0;points=[];autosize=1;strokeColor=none;fillColor=none;labelBackgroundColor=none;fontColor=light-dark(#000000,#000000);" vertex="1" parent="1">
          <mxGeometry x="760" y="380" width="70" height="30" as="geometry" />
        </mxCell>
        <mxCell id="_a2HexDW0yAA7-zQYXx_-22" value="Failure" style="text;html=1;align=center;verticalAlign=middle;resizable=0;points=[];autosize=1;strokeColor=none;fillColor=none;fontColor=light-dark(#000000,#000000);" vertex="1" parent="1">
          <mxGeometry x="300" y="470" width="60" height="30" as="geometry" />
        </mxCell>
        <mxCell id="_a2HexDW0yAA7-zQYXx_-23" value="Failure" style="text;html=1;align=center;verticalAlign=middle;resizable=0;points=[];autosize=1;strokeColor=none;fillColor=none;fontColor=light-dark(#000000,#000000);" vertex="1" parent="1">
          <mxGeometry x="500" y="470" width="60" height="30" as="geometry" />
        </mxCell>
        <mxCell id="_a2HexDW0yAA7-zQYXx_-24" value="Failure" style="text;html=1;align=center;verticalAlign=middle;resizable=0;points=[];autosize=1;strokeColor=none;fillColor=none;fontColor=light-dark(#000000,#000000);" vertex="1" parent="1">
          <mxGeometry x="700" y="470" width="60" height="30" as="geometry" />
        </mxCell>
      </root>
    </mxGraphModel>
  </diagram>
</mxfile>
